<svg xmlns="http://www.w3.org/2000/svg" xmlns:xlink="http://www.w3.org/1999/xlink" viewBox="0 0 111.84 87.43"><defs><style>.cls-1{isolation:isolate;}.cls-2{fill:#272c66;}.cls-3{fill:#060d42;}.cls-4{fill:url(#linear-gradient);}.cls-5{fill:#1e88f5;}.cls-6{fill:#01d9e0;}.cls-7{fill:#dbdbdb;}.cls-8{fill:#fff;}.cls-9{fill:#ffd451;}.cls-10{fill:url(#linear-gradient-2);}.cls-11{fill:url(#linear-gradient-3);}.cls-12{fill:url(#linear-gradient-4);}.cls-13{fill:#f88667;}.cls-14{fill:#fe3da6;}.cls-15{fill:#ca0045;mix-blend-mode:multiply;opacity:0.32;}.cls-16{fill:#110239;}.cls-17{fill:#e45940;}.cls-18{fill:#ffb900;}.cls-19{fill:#161415;}.cls-20{fill:#36c;}.cls-21{fill:#2135ad;}.cls-22{fill:#9c48d1;}.cls-23,.cls-24{fill:#6d008d;}.cls-23{opacity:0.55;}</style><linearGradient id="linear-gradient" x1="56.82" y1="7.79" x2="56.82" y2="61.9" gradientUnits="userSpaceOnUse"><stop offset="0" stop-color="#2cc3ec"/><stop offset="0.21" stop-color="#38c4ed"/><stop offset="0.7" stop-color="#50c6ee"/><stop offset="1" stop-color="#59c7ef"/></linearGradient><linearGradient id="linear-gradient-2" x1="45.56" y1="17.88" x2="45.56" y2="20.84" xlink:href="#linear-gradient"/><linearGradient id="linear-gradient-3" x1="72.96" y1="18.11" x2="72.96" y2="20.58" xlink:href="#linear-gradient"/><linearGradient id="linear-gradient-4" x1="65.41" y1="20.97" x2="65.41" y2="22.92" xlink:href="#linear-gradient"/></defs><g class="cls-1"><g id="Layer_2" data-name="Layer 2"><g id="Layer_1-2" data-name="Layer 1"><polygon class="cls-2" points="66.01 83.47 47.64 83.47 49.15 61.33 64.5 61.33 66.01 83.47"/><path class="cls-3" d="M50.78,78c4.59-1.53,10-2.62,14.52-4.85l-.8-11.79H49.15L48,78.89Z"/><path class="cls-2" d="M68.41,79.93a1.16,1.16,0,0,0-1-.53H46.23a1.19,1.19,0,0,0-1,.53l-2.77,4.14a1.2,1.2,0,0,0,1,1.87H70.19a1.2,1.2,0,0,0,1-1.87Z"/><rect class="cls-2" x="6.69" width="100.27" height="67.22" rx="5.17"/><rect class="cls-4" x="11.3" y="4.45" width="91.04" height="57.62"/><rect class="cls-2" x="25.53" y="8.29" width="59.09" height="42.33"/><rect class="cls-5" x="28.15" y="17.35" width="53.86" height="29.45"/><path class="cls-6" d="M79,38.29c-2.63.67-5.47,2-8.25,1.91a25.27,25.27,0,0,1-8.47-1.79c-4.18-1.59-6.56-2.15-10.81.15-4.71,2.57-9,4.45-14.27,2.7-3.2-1-5.29-3.15-8.92-3.24h-.08v8.77H82V38.44A5.56,5.56,0,0,0,79,38.29Z"/><path class="cls-7" d="M30.69,28.28c.45.95,0,2.19.25,3.19.71,2.58,3.8,0,5.37.32,1.9.34,2.32,3,3.55,4.1,1.72,1.58,3.27-.8,4.61-1.68,1-.67,2-.45,3.1-.74a7.52,7.52,0,0,0,3.34-2.34c1.47-1.55,2.4-2.8,4.72-2.75,1.11,0,2.23.3,3.33.41s2.48-.1,3.42.58.87,1.87,1.09,3c.58,3,3.19,1.8,5.12,1.16,2.62-.87,3.6,2.56,6,2.32,1.5-.15,1.48-1.34,2-2.4.41-.84,1.46-1.67,2.38-1,.7.52.59,1.38,1.68,1.4a1.5,1.5,0,0,0,.37,0A1.6,1.6,0,0,0,82,33V30.16h0c0-1.23,0-2.45,0-3.68V17.35H28.15V27.58C28.15,27.3,30.36,27.59,30.69,28.28Z"/><path class="cls-7" d="M64.86,42.08a.45.45,0,0,0-.08.19C64.78,42.33,64.81,42.26,64.86,42.08Z"/><path class="cls-8" d="M41.57,23.59c3.78,3.32,6.68,14.84,12,12.68,3-1.22,13.57-12.69,16.85-13,2.72-.26,4.35.83,6.7,2.51A51.22,51.22,0,0,1,82,30V15H28.15V26.12C33.67,21.93,36.05,18.73,41.57,23.59Z"/><path class="cls-9" d="M57.91,26.11a3.4,3.4,0,1,1-3.39-3.39A3.4,3.4,0,0,1,57.91,26.11Z"/><path class="cls-10" d="M41.5,20.79c2.18,0,4.39.12,6.57,0,.81,0,2.64-.35,2.25-1.64s-2.08-.51-2.41.34c-.11-2.58-3.69-2.19-2.62,0-.45-.46-1.24-1.27-2-1a.81.81,0,0,0-.19,1.46c-.38-.44-1.49-1-2-.49A.74.74,0,0,0,41.5,20.79Z"/><path class="cls-11" d="M69.56,20.55c1.82,0,3.67.09,5.49,0,.68,0,2.21-.3,1.89-1.38s-1.74-.43-2,.29c-.1-2.17-3.1-1.84-2.2,0-.38-.38-1-1.07-1.66-.85a.68.68,0,0,0-.16,1.22c-.31-.36-1.24-.8-1.7-.4A.62.62,0,0,0,69.56,20.55Z"/><path class="cls-12" d="M62.72,22.89c1.44,0,2.91.08,4.34,0,.54,0,1.75-.23,1.49-1.08S67.18,21.47,67,22c-.07-1.71-2.44-1.45-1.73,0-.3-.3-.82-.84-1.31-.67a.54.54,0,0,0-.13,1c-.25-.3-1-.64-1.34-.33A.49.49,0,0,0,62.72,22.89Z"/><circle class="cls-8" cx="29.76" cy="11.9" r="1.24"/><path class="cls-8" d="M33.91,10.66a1.24,1.24,0,1,0,1.24,1.24A1.24,1.24,0,0,0,33.91,10.66Z"/><circle class="cls-8" cx="38.07" cy="11.9" r="1.24"/><circle class="cls-8" cx="80.77" cy="11.9" r="1.24"/><path class="cls-13" d="M39.64,6.56a3.86,3.86,0,0,0-2.06.71,7.58,7.58,0,0,1-1.82.67A6.63,6.63,0,0,1,35.89,9s1-.18,1.12-.21c.35-.11.61-.38,1-.27a2.89,2.89,0,0,1,.53.26c.21.11.71.62,1,.52s-.23-.58-.3-.7-.06-.51.21-.44,1,.56,1.44.37-1.09-.7-1.36-.87c.43.22,1.86.66,2,.41.23-.48-1.28-.73-1.7-.94A2.05,2.05,0,0,0,41,7.4C41.5,7.22,40,6.69,39.64,6.56Z"/><path class="cls-14" d="M20.54,19.27a2.85,2.85,0,0,0,3.69-.16c1.69-1.52,4.85-4.35,5.88-5.13,1.42-1.1,7.83-5.12,7.83-5.12L37,7.05s-8,3.53-9.12,4.42-7.68,4.83-7.95,6.42A1.46,1.46,0,0,0,20.54,19.27Z"/><path class="cls-15" d="M20.54,19.27a2.85,2.85,0,0,0,3.69-.16c1.69-1.52,4.85-4.35,5.88-5.13,1.42-1.1,7.83-5.12,7.83-5.12L37,7.05s-8,3.53-9.12,4.42-7.68,4.83-7.95,6.42A1.46,1.46,0,0,0,20.54,19.27Z"/><polygon class="cls-16" points="15.67 39.13 16.12 37.77 36.39 37.77 35.95 39.13 15.67 39.13"/><polygon class="cls-16" points="13.26 46.36 13.71 44.98 34.09 44.98 33.65 46.36 13.26 46.36"/><polygon class="cls-16" points="18.72 31.91 19.17 30.55 39.44 30.55 39 31.91 18.72 31.91"/><polygon class="cls-16" points="10.82 53.66 11.29 52.27 31.77 52.27 31.33 53.66 10.82 53.66"/><polygon class="cls-16" points="8.36 61.04 8.83 59.64 29.42 59.64 28.98 61.04 8.36 61.04"/><polygon class="cls-16" points="5.87 68.5 6.35 67.09 27.05 67.09 26.6 68.5 5.87 68.5"/><polygon class="cls-16" points="3.36 76.04 3.84 74.61 24.66 74.61 24.2 76.04 3.36 76.04"/><path class="cls-16" d="M1,86.9H.94a.94.94,0,0,1-.89-1.23l19-57A1,1,0,0,1,20,28h1.31L1.92,86.26A.93.93,0,0,1,1,86.9Z"/><path class="cls-16" d="M21.65,86.9h-.1a.94.94,0,0,1-.9-1.22l18.2-57a.93.93,0,0,1,.89-.65h0a.94.94,0,0,1,.9,1.22l-18.12,57A.92.92,0,0,1,21.65,86.9Z"/><path class="cls-13" d="M21.7,11.43a1.42,1.42,0,0,0,.12.13,8.49,8.49,0,0,0,1.28,1.12c.29.19.74.32,1,.52a2.11,2.11,0,0,0,.31.21A23.7,23.7,0,0,0,24,17.15s-2.57-.18-3.5-1.22A26.52,26.52,0,0,0,21.7,11.43Z"/><path class="cls-17" d="M23.07,15.72a3.76,3.76,0,0,0-1.17-1.94,5,5,0,0,0-.61-.45,15.29,15.29,0,0,0,.41-1.9,1.42,1.42,0,0,0,.12.13,8.49,8.49,0,0,0,1.28,1.12c.29.19.74.32,1,.52a2.11,2.11,0,0,0,.31.21A23.7,23.7,0,0,0,24,17.15a9.58,9.58,0,0,1-1-.14A2,2,0,0,0,23.07,15.72Z"/><path class="cls-16" d="M23.12,57.22s.07,2.56.47,2.91,5.49.5,5.93,0,.18-1.26-.92-1.56-1.74,0-2.48-.31-.54-1.46-.54-1.46Z"/><path class="cls-16" d="M10.49,57.14s-.39,2.49,0,2.85,5.57.77,6,.32.23-1.24-.85-1.59-1.72-.13-2.46-.4c-.59-.22-.19-1.4-.19-1.4Z"/><path class="cls-9" d="M14.26,42.79a75.48,75.48,0,0,1,1.06-14.23,6.55,6.55,0,0,1,2.54.49c1.55.71,3.12,1.39,4.68,2.07a99.71,99.71,0,0,0-4.38,13c-.42,2.23-5.07,13.6-5.07,13.6l-2.82-.36C10.31,55.5,14.27,43.4,14.26,42.79Z"/><path class="cls-18" d="M20,30.07a25.86,25.86,0,0,0,2.51,1,107.11,107.11,0,0,0-4,11.58c-.4-1.19-2.31-4.08-3-7.24A16.77,16.77,0,0,1,15.25,29v0A12.13,12.13,0,0,1,20,30.07Z"/><path class="cls-9" d="M17.93,29.68c1.1.37,3.1.9,4.61,1.44,1.05,2.66,4.15,8.93,4.31,11.76.18,3.13-.9,15-.9,15H22.72S22.43,44.5,22,43.64c-1.49-2.83-3.13-5.07-4.07-6.83a21.62,21.62,0,0,1-2.37-6.23c-.13-.61-.66-2.66.38-3.3C16.76,27.52,17,29.37,17.93,29.68Z"/><path class="cls-14" d="M23.71,31.76a13,13,0,0,1-5.37.84c-2-.19-3-.22-4.16-.84,0,0,1.24-9.63,2.66-12.66a6.37,6.37,0,0,1,3.77-3.62A8,8,0,0,0,24,16.53s0,5.91-.15,8.27S23.71,31.76,23.71,31.76Z"/><path class="cls-15" d="M23.84,23.94c0-.26,0-.54,0-.83V23c0-.28,0-.57,0-.86V22c0-.33,0-.66,0-1h0a1.5,1.5,0,0,1-.37,0A8.24,8.24,0,0,1,21,19.77l-.43-.22a11.5,11.5,0,0,0,.65,3.82,21.78,21.78,0,0,1,.47,9,14.18,14.18,0,0,0,2.05-.6s0-4.59.1-7c0-.21,0-.45,0-.71Z"/><path class="cls-13" d="M35.56,31.82a1.46,1.46,0,0,1,.38,0,1.52,1.52,0,0,0,.83-.11,3.33,3.33,0,0,1,1.39-.33c.23,0,1.64.37,1.29.94,0,.08-.22.2-.27.18l-.54-.2a2.41,2.41,0,0,1,.37.16c.05,0,.16.08.19.14A.35.35,0,0,1,39,33c-.12,0-.21-.08-.31-.14h0c.1.07.31.13.18.42s-.25.13-.39.09l-.15-.06a2,2,0,0,1,.29.16c.13.12-.16.51-.42.47s-.53-.25-.62-.22a1.86,1.86,0,0,1-.33,0,2,2,0,0,1-.95-.19l-.52-.24A5.83,5.83,0,0,1,35,32.8C35.26,32.39,35.6,32.29,35.56,31.82Z"/><path class="cls-14" d="M35.07,33.58l1.13-2.24a65.46,65.46,0,0,1-7.67-5.67c-2.05-2.07-4.27-6.29-5.84-6.56s-3.14.6-2.23,2.78,5.5,5.07,6.43,6A94.14,94.14,0,0,0,35.07,33.58Z"/><path class="cls-13" d="M20.93,7.05s4.14-.47,4.43.22.35,2.66.62,3.08.75.91.57,1.18-.38.2-.5.5-.07,2-.62,2.25-3.34.1-4.35-1.49S18.92,7.2,20.93,7.05Z"/><path class="cls-19" d="M19.88,7.44l2.75,1.27a6.26,6.26,0,0,0,.71,3s-.25.38-.51.16a1,1,0,0,1-.48-.73c-.07-.4-.31-1.47-1-.94s0,1.16.41,1.31c0,0,.58,2.09-.52,1.94,0,0-1-.65-1.91-3.15S19.2,7,19.88,7.44Z"/><path class="cls-19" d="M26.56,6.53s1,1.41-1.3,2.36-5.57-1.55-5.57-1.55.08-1.24,1.9-1.77c1.36-.39,2.64-.34,3.34.45C26.11,7.36,26.56,6.53,26.56,6.53Z"/><polygon class="cls-2" points="97.85 62.07 99.79 45.45 43.98 39.02 41.3 62.07 97.85 62.07"/><polygon class="cls-14" points="95.35 62.07 96.33 53.71 45.47 47.85 43.81 62.07 95.35 62.07"/><path class="cls-8" d="M47.72,41.72a1.19,1.19,0,0,0-1.31,1,1.18,1.18,0,1,0,1.31-1Z"/><path class="cls-8" d="M51.64,42.17a1.18,1.18,0,1,0,1,1.3A1.17,1.17,0,0,0,51.64,42.17Z"/><path class="cls-8" d="M55.56,42.62a1.18,1.18,0,1,0,1,1.3A1.18,1.18,0,0,0,55.56,42.62Z"/><path class="cls-13" d="M97.75,34.23a1.4,1.4,0,0,1-.09.17,9.12,9.12,0,0,1-1,1.5c-.25.27-.68.51-.89.78a2.66,2.66,0,0,1-.26.31,25.62,25.62,0,0,1,1.43,3.77s2.62-.86,3.32-2.18A27.75,27.75,0,0,1,97.75,34.23Z"/><path class="cls-17" d="M97.44,39a3.92,3.92,0,0,1,.71-2.31,4.59,4.59,0,0,1,.52-.63,14.53,14.53,0,0,1-.92-1.87,1.4,1.4,0,0,1-.09.17,9.12,9.12,0,0,1-1,1.5c-.25.27-.68.51-.89.78a2.66,2.66,0,0,1-.26.31,25.62,25.62,0,0,1,1.43,3.77,10.16,10.16,0,0,0,1-.42A2.06,2.06,0,0,1,97.44,39Z"/><path class="cls-19" d="M98.06,83.58s.14,2.74-.26,3.15-5.82,1-6.33.53-.3-1.32.85-1.74,1.86-.15,2.62-.54.45-1.6.45-1.6Z"/><path class="cls-19" d="M111.33,82.28s.78,2.59.42,3-5.8,1.63-6.35,1.22-.42-1.29.68-1.81,1.83-.33,2.55-.79.3-1.64.3-1.64Z"/><path class="cls-20" d="M110.78,66.46a81.47,81.47,0,0,0-.86-15.25,6.91,6.91,0,0,0-2.73.48c-1.68.73-3.36,1.42-5,2.12a108.54,108.54,0,0,1,4.44,14c.4,2.4,2.17,15.5,2.17,15.5l3.09-.13C111.83,81.19,110.76,67.12,110.78,66.46Z"/><path class="cls-21" d="M104.84,52.73c-.88.41-1.8.73-2.71,1.05a112.92,112.92,0,0,1,4.43,13.94c.45-1.27,2.2-5.79,3-9.16a18.12,18.12,0,0,0,.38-6.88v0A12.9,12.9,0,0,0,104.84,52.73Z"/><path class="cls-20" d="M107.1,52.36c-1.18.37-3.33.9-5,1.45-1.17,2.82-4.35,11-4.94,13.94C96.38,71.88,95,84.11,95,84.11l3.49.45s3.5-16.42,4-17.33c1.65-3,3.46-5.37,4.49-7.24a22.86,22.86,0,0,0,3-8.31C109.07,51.92,108.09,52,107.1,52.36Z"/><path class="cls-13" d="M76.79,40.5a3.88,3.88,0,0,1,2,.84,8,8,0,0,0,1.77.79,7.35,7.35,0,0,0-.2,1.06s-1-.24-1.1-.28c-.34-.13-.59-.42-1-.34a3.76,3.76,0,0,0-.55.23c-.21.1-.75.57-1,.46s.27-.56.35-.68.09-.5-.19-.44-1.06.48-1.46.27,1.13-.63,1.41-.78c-.44.19-1.89.53-2,.28-.19-.49,1.33-.65,1.76-.83a2.13,2.13,0,0,1-1.21.18C74.9,41,76.48,40.61,76.79,40.5Z"/><path class="cls-22" d="M101.2,42.43a3,3,0,0,0-3.37-2.06c-2.41.34-6.9,1-8.29,1-1.92.12-10-.14-10-.14l-.22,2.18S88.5,45.09,90,45s9.71.3,10.9-.95A1.56,1.56,0,0,0,101.2,42.43Z"/><path class="cls-23" d="M101.2,42.43a3,3,0,0,0-3.37-2.06c-2.41.34-6.9,1-8.29,1-1.92.12-10-.14-10-.14l-.22,2.18S88.5,45.09,90,45s9.71.3,10.9-.95A1.56,1.56,0,0,0,101.2,42.43Z"/><path class="cls-22" d="M100.93,55.88a24.22,24.22,0,0,0,5.53-1.17c2-.71,3.71-1.88,4-2.75,0,0-3.38-8.24-5.65-11a6.76,6.76,0,0,0-4.84-2.78,8.52,8.52,0,0,1-3.21,2s1.57,6.14,2.3,8.56S100.93,55.88,100.93,55.88Z"/><path class="cls-24" d="M101.37,46.5a11.83,11.83,0,0,0-.31-4.13c-.13.11-.26.22-.38.34a9,9,0,0,1-2.37,1.9,1.77,1.77,0,0,1-.37.12c.39,1.49.81,3,1.09,3.94.73,2.43,1.9,7.21,1.9,7.21s.79-.06,1.94-.26C101.56,53,101.39,49.57,101.37,46.5Z"/><path class="cls-13" d="M98.15,31.26s-1.75-2.07-3.24-1.58-2.39,1-2.44,1.63a16.45,16.45,0,0,1-.19,3c-.23.7-.86,1.7-.77,2s1,.13,1,.23,1.06,1.93,1.43,2,3-1.77,3.19-2.75S98.69,32.75,98.15,31.26Z"/><path class="cls-19" d="M95.11,32.25c-.29.41-1.16,1-3,.71s-2.06-4.15,1.36-4.76,3.58.63,4.27.74a2.38,2.38,0,0,1,1.71.94,3.35,3.35,0,0,1,0,4.24C98.24,35.94,97.12,36,97.12,36c-.17-.41-.31-1.12,0-1.43a2.39,2.39,0,0,0,.48-.43.67.67,0,0,0-.91-.93c-.36.15-.37.85-.53,1.15s-.33.29-.47.27-.63-.73-.3-1.65C95.6,32.36,95.41,31.84,95.11,32.25Z"/><path class="cls-13" d="M87.7,56.81a2.56,2.56,0,0,1-1.13.61,1.66,1.66,0,0,0-.58.15,2.84,2.84,0,0,1-.64.24,1.27,1.27,0,0,0-.61.31c-.18.22.18.28.42.28s1-.45,1.17-.27-.66.7-.84.8c-.41.24-.72.06-1.15.07-.26,0-.37.09-.19.32s.38.18.58.19A2.63,2.63,0,0,0,86,59.29a3.13,3.13,0,0,1-1.13.32c-.23,0-1.19,0-1.19.3,0,.71,2.14.22,2.45,0a3.33,3.33,0,0,1-1.12.4c-.22.06-.77.17-.46.46s1.49-.31,2-.55a4.19,4.19,0,0,1-1,.59c-.44.24-.11.48.38.31a4.84,4.84,0,0,0,.68-.33,3.85,3.85,0,0,0,1.67-1.83c.17-.3.79-.7.73-1C88.9,57.37,88.11,57.08,87.7,56.81Z"/><path class="cls-22" d="M88.56,59l-1.71-1.82s4.81-5.71,6.54-8.45,3.12-7.84,4.75-8.51,3.56-.11,3.1,2.48-4.75,6.82-5.53,8.08A103.61,103.61,0,0,1,88.56,59Z"/></g></g></g></svg>