<svg id="Layer_1" data-name="Layer 1" xmlns="http://www.w3.org/2000/svg" viewBox="0 0 708.66 247.04"><defs><style>.cls-1{fill:#359e00;}.cls-2{fill:#a7bf31;}.cls-3{fill:#ffb200;}.cls-4{fill:#ff6a00;}.cls-5{fill:#e50073;}.cls-6{fill:#909;}.cls-7{fill:#14a4a3;}.cls-8{fill:#003bb2;}</style></defs><path d="M255.71,147.58h43V176.3c0,5.74,1.25,11.48,7.74,11.48,8.24,0,8.49-9.23,8.49-16.23v-7.49c0-32.71-59.43-28.46-59.43-79.4v-10c0-32.46,19.73-44.2,50.19-44.2,43,0,50.69,20,50.69,39.2V86.4h-41.2V71.67c0-11.23-5-12.73-9-12.73-4.49,0-7.74,2.74-7.74,11.73v7.74c0,26,60.93,25.72,60.93,78.16v14c0,36.21-21.73,45.7-53.69,45.7-43.7,0-49.94-21-49.94-46.44Z"/><path d="M386.75,34.22h66.17L477.39,212.5H431.45L429.2,181H412.47l-2.25,31.46H364.28Zm41.7,115.36-8-83.9H420l-7.49,83.9Z"/><path d="M485.43,34.22h50.69c29.47,0,52.62,1.74,52.62,36.2V87.7c0,19.47-7.92,30.21-27.4,31.46v.5c20.48,1.25,28.72,13,28.72,33V212.5H547.11V147.85c0-8.49-2.5-16.34-12-16.34l-5.24,0v81H485.43Zm44.45,69.46h3.5c6.24,0,13.73-2.25,13.73-12.49v-16c0-10.24-7.49-12.49-13.73-12.49h-3.5Z"/><path d="M708.45,80.15h0c0-.26,0-.53,0-.79A45.14,45.14,0,0,0,663.3,34.22H599.07V212.5H660.5c.93.06,1.86.09,2.8.09a45.14,45.14,0,0,0,45.14-45.14c0-.29,0-.59,0-.88h0ZM652.4,182.54h-6V64.18h6c6.74,0,11.77,6.24,11.52,15.52v88.11C664.17,175.51,659.14,182.54,652.4,182.54Z"/><path class="cls-1" d="M127.49,138.26a67.2,67.2,0,0,0-.56,8.62A66.63,66.63,0,0,0,153.1,199.8c.2-1.19.37-2.39.5-3.6a64.82,64.82,0,0,1-5-4.46,63.11,63.11,0,0,1-18.3-44.34,62.39,62.39,0,0,1,.37-6.7C129.66,139.85,128.59,139,127.49,138.26Z"/><path class="cls-1" d="M194,146.44a66.11,66.11,0,0,0-47.09-19.5,66.87,66.87,0,0,0-17.42,2.3l-.15,0,0,.15q-.66,2.46-1.13,5c1.07.74,2.13,1.5,3.16,2.3.25-1.42.53-2.83.88-4.23l.06-.27.27-.06a62.67,62.67,0,0,1,15-1.82h0a62.16,62.16,0,0,1,44.24,18.33,62.76,62.76,0,0,1,16.49,59.26l-.07.26-.26.06a62.75,62.75,0,0,1-15,1.82,62.07,62.07,0,0,1-36.37-11.64c-.16,1.15-.35,2.3-.57,3.44a66,66,0,0,0,37.56,11.59h0a66.87,66.87,0,0,0,17.42-2.3l.16,0,0-.16a67.09,67.09,0,0,0,2.31-17.44A66.12,66.12,0,0,0,194,146.44Z"/><path class="cls-2" d="M89.92,189.38a67,67,0,0,0,.61,9c1-.7,2-1.43,2.9-2.19a64,64,0,0,1-.37-6.81,63,63,0,0,1,23.28-48.66c-.15-1.34-.34-2.67-.57-4A66.86,66.86,0,0,0,89.92,189.38Z"/><path class="cls-2" d="M137.62,142.3a66.83,66.83,0,0,0-14-10.7l-.14-.08-.14.08c-1.53.88-3,1.82-4.45,2.8.25,1.28.45,2.57.62,3.86q1.82-1.29,3.74-2.46l.23-.14.23.14a63.23,63.23,0,0,1,11.91,9.34A62.16,62.16,0,0,1,154,189.38a63,63,0,0,1-30.23,53.56l-.23.14-.23-.14a62.77,62.77,0,0,1-11.91-9.33,62.08,62.08,0,0,1-17.47-33.83c-.93.71-1.87,1.39-2.84,2a66.16,66.16,0,0,0,18.35,34.63,67,67,0,0,0,13.95,10.69l.15.08.14-.08a66.81,66.81,0,0,0,33.46-57.77A66.11,66.11,0,0,0,137.62,142.3Z"/><path class="cls-3" d="M100.28,127a66.7,66.7,0,0,0-53,26.15c1.19.2,2.39.37,3.6.5q2.09-2.57,4.45-4.95a63.17,63.17,0,0,1,44.4-18.29,61.27,61.27,0,0,1,6.64.36c.85-1.05,1.66-2.12,2.44-3.22A67,67,0,0,0,100.28,127Z"/><path class="cls-3" d="M117.8,129.44l0-.15-.16,0q-2.46-.66-5-1.13c-.74,1.07-1.5,2.13-2.3,3.16,1.42.25,2.84.54,4.24.88l.26.06.06.27a62.75,62.75,0,0,1,1.82,15A62.14,62.14,0,0,1,98.4,191.74,63.17,63.17,0,0,1,54,210a62.45,62.45,0,0,1-14.87-1.8l-.27-.07-.06-.26a62.77,62.77,0,0,1-1.82-15A62.08,62.08,0,0,1,48.64,156.5q-1.74-.24-3.45-.57A66.05,66.05,0,0,0,33.6,193.52a66.87,66.87,0,0,0,2.3,17.42l.05.16.15,0a66.26,66.26,0,0,0,17.33,2.3A67.13,67.13,0,0,0,100.61,194a66.15,66.15,0,0,0,19.5-47.08A67,67,0,0,0,117.8,129.44Z"/><path class="cls-4" d="M112.64,118.93c-1.28.25-2.57.45-3.86.62q1.29,1.82,2.46,3.74l.14.23-.14.23a63.23,63.23,0,0,1-9.34,11.91A62.16,62.16,0,0,1,57.66,154,63,63,0,0,1,4.1,123.75L4,123.52l.14-.23a63.18,63.18,0,0,1,9.33-11.91,62.12,62.12,0,0,1,33.8-17.46c-.71-.93-1.4-1.87-2-2.83A66.79,66.79,0,0,0-.1,123.38l-.08.14.08.14a66.8,66.8,0,0,0,57.77,33.46,66.1,66.1,0,0,0,47.07-19.5,66.83,66.83,0,0,0,10.7-14l.08-.14-.08-.14C114.56,121.85,113.62,120.37,112.64,118.93Z"/><path class="cls-4" d="M57.66,89.92a68.67,68.67,0,0,0-9,.6c.7,1,1.43,2,2.19,2.9a63.83,63.83,0,0,1,6.8-.37h0a63,63,0,0,1,48.67,23.29c1.33-.15,2.67-.34,4-.57A66.86,66.86,0,0,0,57.66,89.92Z"/><path class="cls-5" d="M119.55,108.78a66.92,66.92,0,0,0,.55-8.61,66.14,66.14,0,0,0-19.49-47.08A67.73,67.73,0,0,0,94,47.25c-.21,1.19-.37,2.39-.51,3.6a62.6,62.6,0,0,1,22.89,55.49C117.38,107.19,118.45,108,119.55,108.78Z"/><path class="cls-5" d="M115.77,110.33c-.24,1.42-.53,2.83-.88,4.23l-.06.27-.26.06a62.83,62.83,0,0,1-15,1.82A62.15,62.15,0,0,1,55.3,98.39,62.76,62.76,0,0,1,38.81,39.13l.06-.26.27-.06a62.69,62.69,0,0,1,15-1.82h0A62.06,62.06,0,0,1,90.54,48.64q.24-1.74.57-3.45a66.1,66.1,0,0,0-37.58-11.6A67,67,0,0,0,36.1,35.9l-.16,0,0,.16a67,67,0,0,0-2.31,17.44,66.56,66.56,0,0,0,66.58,66.56,67,67,0,0,0,17.43-2.3l.15,0,0-.16q.66-2.46,1.13-5C117.86,111.89,116.8,111.13,115.77,110.33Z"/><path class="cls-6" d="M157.13,57.66a67.09,67.09,0,0,0-.61-9c-1,.7-2,1.43-2.9,2.19a63.83,63.83,0,0,1,.37,6.8,63,63,0,0,1-23.28,48.68c.14,1.33.33,2.67.56,4A66.9,66.9,0,0,0,157.13,57.66Z"/><path class="cls-6" d="M127.49,108.78q-1.81,1.29-3.74,2.46l-.23.14-.23-.14a63.23,63.23,0,0,1-11.91-9.34A62.16,62.16,0,0,1,93.05,57.66,63,63,0,0,1,123.29,4.1l.23-.14.24.14a63.09,63.09,0,0,1,11.91,9.33,62.13,62.13,0,0,1,17.46,33.83c.93-.71,1.87-1.38,2.84-2a66.16,66.16,0,0,0-18.35-34.63,67,67,0,0,0-14-10.69l-.14-.08-.15.08A66.82,66.82,0,0,0,89.92,57.66a66.13,66.13,0,0,0,19.51,47.08,66.85,66.85,0,0,0,13.95,10.7l.14.08.14-.08c1.53-.88,3-1.82,4.45-2.8C127.87,111.36,127.66,110.07,127.49,108.78Z"/><path class="cls-7" d="M189.37,157.13h0a66.87,66.87,0,0,0,9-.61c-.7-1-1.43-2-2.19-2.9a61.36,61.36,0,0,1-6.81.37,63,63,0,0,1-48.67-23.28c-1.33.14-2.67.33-4,.56A66.86,66.86,0,0,0,189.37,157.13Z"/><path class="cls-7" d="M247.14,123.39a66.82,66.82,0,0,0-57.77-33.47,66.77,66.77,0,0,0-57.77,33.46l-.08.14.08.14c.88,1.53,1.82,3,2.8,4.45,1.28-.24,2.57-.45,3.87-.62q-1.31-1.81-2.46-3.74l-.15-.23.14-.23a63.23,63.23,0,0,1,9.34-11.91,62.14,62.14,0,0,1,44.23-18.32h0a63,63,0,0,1,53.56,30.24l.14.23-.14.23a63.18,63.18,0,0,1-9.33,11.91,62.12,62.12,0,0,1-33.8,17.46c.71.93,1.4,1.87,2.05,2.83a66.09,66.09,0,0,0,34.59-18.33,67,67,0,0,0,10.69-14l.08-.14Z"/><path class="cls-8" d="M196.19,93.44a62.5,62.5,0,0,1-48.85,23.25,64.07,64.07,0,0,1-6.64-.36c-.84,1-1.66,2.12-2.43,3.21a65.11,65.11,0,0,0,8.5.55A67.16,67.16,0,0,0,194,100.61,66.59,66.59,0,0,0,199.79,94Q198,93.65,196.19,93.44Z"/><path class="cls-8" d="M136.71,115.77c-1.42-.25-2.83-.53-4.23-.88l-.27-.06-.06-.27a62.65,62.65,0,0,1,75.76-75.75l.26.07.07.26a62.7,62.7,0,0,1-9.83,51.4c1.15.16,2.3.35,3.44.57a66.08,66.08,0,0,0,11.6-37.58,66.87,66.87,0,0,0-2.3-17.42L211.1,36l-.15,0a66.31,66.31,0,0,0-17.33-2.3,67.14,67.14,0,0,0-47.18,19.48,66.11,66.11,0,0,0-19.5,47.09,66.93,66.93,0,0,0,2.3,17.42l0,.15.15,0q2.46.66,5,1.13C135.15,117.86,135.91,116.8,136.71,115.77Z"/></svg>